<svg width="42" height="42" viewBox="0 0 42 42" fill="none" xmlns="http://www.w3.org/2000/svg">
<path d="M34.3623 9.77251V9.77388C34.3623 11.136 33.2578 12.2392 31.897 12.2392C30.5362 12.2392 29.4317 11.1347 29.4317 9.77388C29.4317 8.41174 30.5362 7.3086 31.897 7.3086C33.2578 7.30997 34.3609 8.41174 34.3623 9.77251ZM20.9259 27.5914C17.1423 27.5914 14.0754 24.5245 14.0754 20.7409C14.0754 16.9573 17.1423 13.8905 20.9259 13.8905C24.7094 13.8905 27.7763 16.9573 27.7763 20.7409C27.7763 24.5231 24.7108 27.59 20.9286 27.59H20.9272L20.9259 27.5914ZM20.9259 10.1891C15.0977 10.1891 10.374 14.9141 10.374 20.7409C10.374 26.5677 15.0991 31.2927 20.9259 31.2927C26.754 31.2927 31.4777 26.5677 31.4777 20.7409V20.7395C31.4777 14.9128 26.754 10.1877 20.9259 10.1877H20.9245L20.9259 10.1891ZM20.9259 3.89091C26.4114 3.89091 27.0651 3.91831 29.2316 4.01287C30.6061 4.02931 31.9134 4.28968 33.1235 4.75012L33.0454 4.72409C34.846 5.42571 36.2438 6.82349 36.9304 8.57756L36.9468 8.62415C37.3798 9.75607 37.6375 11.0648 37.6539 12.431V12.4379C37.7512 14.6058 37.7731 15.2567 37.7731 20.7437C37.7731 26.2306 37.7471 26.8829 37.6471 29.0494C37.621 30.4253 37.3593 31.7326 36.9002 32.9427L36.9262 32.8632C36.5727 33.7895 36.0492 34.5789 35.3873 35.2284L35.386 35.2298C34.7378 35.8931 33.9484 36.4165 33.0673 36.7495L33.0234 36.7646C31.8874 37.1976 30.5746 37.4553 29.2029 37.4717H29.196C27.0144 37.569 26.3717 37.5909 20.8752 37.5909C15.3759 37.5909 14.7345 37.5649 12.5543 37.4649C11.173 37.4388 9.86016 37.1771 8.64464 36.718L8.72549 36.744C7.79913 36.396 7.00979 35.8711 6.36572 35.2065L6.36435 35.2051C5.69424 34.5611 5.16802 33.7704 4.83777 32.8851L4.82406 32.8426C4.3924 31.708 4.13066 30.3965 4.10462 29.0261V29.0152C4.02788 26.8569 4.00047 26.1909 4.00047 20.7204C4.00047 15.2471 4.02788 14.5798 4.10462 12.3954C4.13066 11.0154 4.39103 9.704 4.8501 8.48985L4.82406 8.5707C5.16254 7.64022 5.69013 6.84815 6.36298 6.20819L6.36572 6.20545C7.00705 5.53123 7.79775 5.00638 8.68438 4.68161L8.72686 4.6679C9.85467 4.23213 11.1579 3.97039 12.52 3.94709H12.5296C14.7126 3.87035 15.3553 3.84431 20.8505 3.84431L20.9259 3.89091ZM20.9259 0.190918C15.343 0.190918 14.6468 0.216955 12.4543 0.314251C10.6522 0.352621 8.94338 0.700694 7.36198 1.30503L7.46613 1.27077C6.04095 1.8148 4.8268 2.62195 3.82644 3.63876L3.82506 3.64013C2.80414 4.64049 1.99837 5.85601 1.47763 7.21267L1.45433 7.28119C0.88426 8.75844 0.536187 10.4687 0.499187 12.2529V12.2693C0.39641 14.4619 0.375854 15.1581 0.375854 20.7409C0.375854 26.3238 0.401891 27.0199 0.499187 29.2125C0.537558 31.0145 0.885631 32.7234 1.48996 34.3048L1.4557 34.2006C2.54651 36.9702 4.69662 39.1203 7.39487 40.1864L7.46613 40.2111C8.94338 40.7798 10.6536 41.1278 12.4378 41.1662H12.4543C14.6468 41.269 15.343 41.2896 20.9259 41.2896C26.5087 41.2896 27.2049 41.2635 29.3975 41.1662C31.1995 41.1265 32.9083 40.7798 34.4897 40.1754L34.3856 40.2111C37.1551 39.1203 39.3052 36.9702 40.3713 34.2719L40.396 34.2006C40.9661 32.7234 41.3128 31.0132 41.3512 29.229V29.2125C41.4539 27.0199 41.4745 26.3238 41.4745 20.7409C41.4745 15.1581 41.4485 14.4619 41.3512 12.2693C41.3114 10.4673 40.9647 8.75844 40.3604 7.17704L40.396 7.28119C39.8506 5.85601 39.0448 4.64187 38.0266 3.6415L38.0253 3.64013C37.0249 2.61921 35.8094 1.81343 34.4527 1.29269L34.3842 1.2694C32.907 0.699324 31.1967 0.351251 29.4125 0.314251H29.3961C27.2035 0.211473 26.5074 0.190918 20.9245 0.190918H20.9259Z" fill="white"/>
</svg>
