<svg width="37" height="38" viewBox="0 0 37 38" fill="none" xmlns="http://www.w3.org/2000/svg">
<path d="M36.7716 2.3877V35.0938C36.7658 35.1642 36.7331 35.2296 36.6802 35.2765C36.6582 35.7055 36.4779 36.111 36.1741 36.4148C35.8704 36.7185 35.4648 36.8989 35.0358 36.9209H25.4432V22.8518H29.9198C30.1938 22.8518 30.1938 22.8518 30.2852 22.5778L30.5593 20.2938C30.6506 19.3802 30.742 18.4667 30.9247 17.5531C31.1074 16.6395 30.9247 17.279 30.742 17.279H25.4432V13.7161C25.4432 13.442 25.5346 13.0766 25.5346 12.8025C25.5743 12.4284 25.7411 12.0792 26.0071 11.8132C26.2731 11.5472 26.6222 11.3805 26.9963 11.3408L28.184 11.158H30.9247C31.1074 11.158 31.1074 11.158 31.1074 10.9753V6.31608C31.1074 6.22472 31.1074 6.13337 30.9247 6.13337H26.7222C25.6808 6.10478 24.6476 6.32397 23.7074 6.77287C23.0121 7.00691 22.3707 7.37817 21.8215 7.86465C21.2722 8.35113 20.8262 8.94292 20.5099 9.60496C19.9888 10.6206 19.7372 11.7531 19.7791 12.8938C19.6877 14.2642 19.7791 15.7259 19.7791 17.1876H15.1198C14.9371 17.1876 14.9371 17.279 14.9371 17.3704V22.5778C14.9371 22.7605 14.9371 22.7605 15.1198 22.7605H19.7791V36.8296C19.7262 36.8764 19.6935 36.9419 19.6877 37.0123H1.96431C1.53532 36.9902 1.12973 36.8099 0.82599 36.5062C0.522245 36.2024 0.341916 35.7968 0.319873 35.3678C0.228516 35.3678 0.228516 35.2765 0.228516 35.1851V2.3877C0.228516 2.29634 0.228516 2.20499 0.319873 2.20499C0.341916 1.77599 0.522245 1.37041 0.82599 1.06666C1.12973 0.762918 1.53532 0.582589 1.96431 0.560547H35.0358C35.4648 0.582589 35.8704 0.762918 36.1741 1.06666C36.4779 1.37041 36.6582 1.77599 36.6802 2.20499L36.7716 2.3877Z" fill="white"/>
</svg>
