<svg width="27" height="27" viewBox="0 0 27 27" fill="none" xmlns="http://www.w3.org/2000/svg">
<g clip-path="url(#clip0_43_2268)">
<path d="M26.5427 4.99742C25.5761 5.42932 24.5272 5.71724 23.4372 5.85092C24.5581 5.18252 25.4116 4.12336 25.8126 2.85853C24.7637 3.47552 23.612 3.92798 22.378 4.17477C21.3909 3.12589 19.9821 2.46777 18.4293 2.46777C15.4472 2.46777 13.0204 4.89459 13.0204 7.8767C13.0204 8.29831 13.0615 8.70964 13.1644 9.11068C8.67062 8.88445 4.68077 6.73527 2.01744 3.45495C1.5547 4.25704 1.28733 5.18252 1.28733 6.17998C1.28733 8.05151 2.24367 9.7071 3.69359 10.684C2.80924 10.6531 1.97631 10.4064 1.2462 10.0053V10.067C1.2462 12.6892 3.10745 14.8795 5.58569 15.3731C5.13323 15.4965 4.64992 15.5685 4.15633 15.5685C3.8067 15.5685 3.46736 15.5376 3.1383 15.4759C3.82727 17.6251 5.8222 19.1881 8.18732 19.2293C6.33635 20.6792 4.00208 21.543 1.47243 21.543C1.04054 21.543 0.608649 21.5224 0.176758 21.471C2.57273 23.0032 5.41087 23.8978 8.46496 23.8978C18.419 23.8978 23.8588 15.6507 23.8588 8.50397C23.8588 8.26746 23.8588 8.03095 23.8485 7.80472C24.9077 7.03348 25.8229 6.08744 26.5427 4.99742Z" fill="white"/>
</g>
<defs>
<clipPath id="clip0_43_2268">
<rect width="26.3659" height="26.3659" fill="white" transform="translate(0.176758)"/>
</clipPath>
</defs>
</svg>
